<svg width="81" height="40" viewBox="0 0 81 40" fill="none" xmlns="http://www.w3.org/2000/svg">
<rect width="81" height="40" fill="black"/>
<path d="M14.87 12.7869C14.3982 12.8153 13.9478 12.9939 13.5847 13.2966C13.3986 13.4456 13.2482 13.6344 13.1447 13.8492C13.0411 14.0639 12.987 14.2991 12.9863 14.5376V25.6179C12.9874 25.854 13.0394 26.0872 13.1388 26.3014C13.2382 26.5155 13.3828 26.7057 13.5625 26.8589C13.9356 27.1479 14.3983 27.2969 14.87 27.2799H15.8229V30.0943C15.8112 30.2273 15.8411 30.3607 15.9086 30.4758C15.9762 30.591 16.0779 30.6823 16.1996 30.737C16.3149 30.801 16.4445 30.8346 16.5764 30.8346C16.7082 30.8346 16.8378 30.801 16.9531 30.737L21.3852 27.3464H32.2439C32.7058 27.3434 33.1552 27.1962 33.5293 26.9254C33.7154 26.7764 33.8657 26.5875 33.9693 26.3728C34.0728 26.158 34.1269 25.9228 34.1276 25.6844V14.604C34.1479 14.3617 34.1126 14.1179 34.0242 13.8913C33.9359 13.6646 33.7969 13.4612 33.6179 13.2966C33.2482 13.0172 32.7959 12.869 32.3326 12.8755L14.87 12.7869Z" stroke="white" stroke-width="0.975069" stroke-miterlimit="10"/>
<path d="M50.619 18.697H52.225V17.52H50.619V16.145H49.244V17.52H47.627V18.697H49.244V18.862C49.244 20.424 48.727 22.085 47.286 22.921L48.1 24.01C49.013 23.493 49.607 22.602 49.948 21.546C50.311 22.503 50.894 23.306 51.796 23.779L52.566 22.701C51.136 21.942 50.619 20.391 50.619 18.862V18.697ZM54.865 15.804V19.687H54.04V15.969H52.687V25.484H54.04V20.875H54.865V25.935H56.24V15.804H54.865ZM66.0071 15.815H64.5441V21.953H66.0071V15.815ZM63.7081 20.116C62.4431 20.303 61.3321 20.347 59.5831 20.358V19.566H62.7181V18.444H59.5831V17.663H63.0151V16.519H58.1421V21.502H59.0111C61.1451 21.502 62.4101 21.469 63.8401 21.238L63.7081 20.116ZM62.5861 24.835C61.2771 24.835 60.5731 24.582 60.5731 24.021C60.5731 23.471 61.2771 23.207 62.5861 23.207C63.9061 23.207 64.5991 23.471 64.5991 24.021C64.5991 24.582 63.9061 24.835 62.5861 24.835ZM62.5861 22.096C60.4411 22.096 59.1321 22.811 59.1321 24.021C59.1321 25.253 60.4411 25.946 62.5861 25.946C64.7311 25.946 66.0511 25.253 66.0511 24.021C66.0511 22.811 64.7311 22.096 62.5861 22.096Z" fill="white"/>
</svg>
