<svg xmlns="http://www.w3.org/2000/svg" width="185" height="19" viewBox="0 0 185 19"><g><g><g><path d="M3.97 12.787c-.02.52.09 1.038.32 1.504.193.409.485.761.85 1.024.376.26.789.46 1.225.591.489.11.989.164 1.49.161a9.68 9.68 0 0 0 1.117-.107c.385-.057.76-.166 1.117-.323a2.14 2.14 0 0 0 .851-.698c.231-.328.344-.726.32-1.128a1.587 1.587 0 0 0-.48-1.181 3.673 3.673 0 0 0-1.17-.751 11.927 11.927 0 0 0-1.649-.538l-1.916-.484a26.884 26.884 0 0 1-1.916-.59 5.466 5.466 0 0 1-1.649-.913 4.2 4.2 0 0 1-1.17-1.396 4.06 4.06 0 0 1-.48-2.095A4.702 4.702 0 0 1 1.416 3.5c.38-.65.887-1.216 1.49-1.664A8.708 8.708 0 0 1 5.036.813 9.089 9.089 0 0 1 7.376.49c.898-.002 1.792.106 2.664.323a6.107 6.107 0 0 1 2.234 1.023 5.45 5.45 0 0 1 1.544 1.773c.404.816.605 1.719.586 2.631h-3.729a4.513 4.513 0 0 0-.32-1.342 2.168 2.168 0 0 0-.744-.805 3.696 3.696 0 0 0-1.064-.43 5.35 5.35 0 0 0-1.33-.108 5.81 5.81 0 0 0-.958.108c-.301.05-.59.16-.85.322-.261.157-.479.377-.635.64-.167.275-.26.59-.266.912-.018.302.056.602.213.86.187.287.47.497.798.59.515.229 1.05.408 1.596.538.693.215 1.597.43 2.664.699.213.053.479.107.85.215.32.107.693.215 1.118.376.373.161.744.376 1.17.591.391.259.748.565 1.064.913.327.388.596.822.798 1.288.228.562.337 1.166.32 1.773a5.358 5.358 0 0 1-.48 2.255 5.713 5.713 0 0 1-1.383 1.826c-.684.53-1.458.93-2.283 1.181a11.11 11.11 0 0 1-3.14.43 9.926 9.926 0 0 1-2.82-.376 8.238 8.238 0 0 1-2.395-1.127A5.98 5.98 0 0 1 .95 15.58a5.355 5.355 0 0 1-.586-2.846h3.618z"/></g><g><path d="M23.449 5.324h.048l2.236 6.498h-4.577zM14.82 18.642h3.943l1.383-3.973h6.488l1.33 3.973h3.99L25.41.92h-3.937z"/></g><g><path d="M32.97.92h3.884v17.722H32.97z"/></g><g><path d="M54.418.92H50.8v11.922h-.054L43.456.92H39.57v17.722h3.62V6.774h.053l7.344 11.868h3.83V4.196h4.844v14.446h3.884V4.196h5.268V.92z"/></g><g><path d="M75.65.92h3.884v14.446h8.568v3.276H75.65z"/></g><g><path d="M96.939 5.324h.048l2.24 6.498h-4.585zM88.31 18.642h3.943l1.383-3.973h6.54l1.33 3.973h3.991L98.952.92h-3.937z"/></g><g><path d="M120.771 11.926a6.78 6.78 0 0 1-1.969 5.375 8.076 8.076 0 0 1-5.534 1.773 7.984 7.984 0 0 1-5.535-1.773 6.778 6.778 0 0 1-1.969-5.375V.92h3.884v11.006c.007.467.043.934.107 1.396.089.445.27.866.533 1.235.287.384.674.681 1.117.859a4.643 4.643 0 0 0 1.863.322 3.762 3.762 0 0 0 2.873-.912c.592-.844.874-1.87.798-2.9V.92h3.884v11.006z"/></g><g><path d="M127.107 3.918h4.26a2.98 2.98 0 0 1 1.97.591c.511.483.768 1.179.694 1.88a2.486 2.486 0 0 1-.693 1.934 2.98 2.98 0 0 1-1.971.591h-4.26zm-3.887 14.669h3.836V11.66h3.885a2.832 2.832 0 0 1 2.076.64c.5.566.799 1.284.85 2.04.062.374.098.75.107 1.128.053.376.053.753.107 1.128.053.375.106.75.16 1.073.056.313.145.619.266.913h3.887a2.408 2.408 0 0 1-.427-.913 8.419 8.419 0 0 1-.213-1.127 9.733 9.733 0 0 1-.106-1.181c0-.375-.053-.698-.053-.967a5.457 5.457 0 0 0-.16-1.342 4.838 4.838 0 0 0-.426-1.235 2.62 2.62 0 0 0-.745-.966 2.693 2.693 0 0 0-1.17-.591v-.054a4.088 4.088 0 0 0 2.13-1.719c.439-.825.657-1.751.633-2.688a5.623 5.623 0 0 0-.373-1.88 4.365 4.365 0 0 0-1.014-1.557 4.885 4.885 0 0 0-1.649-1.074 5.38 5.38 0 0 0-2.13-.376h-9.471z"/></g><g><path d="M140.25.92h13.145v3.276h-9.258V8.01h8.514v3.007h-8.514v4.351h9.472v3.277H140.25z"/></g><g><path d="M170.218.92h-3.62v11.922h-.053L159.201.92h-3.831v17.722h3.618V6.774h.053l7.291 11.868h3.884V4.196h4.844v14.446h3.83V4.196h5.267V.92z"/></g></g></g></svg>