<svg xmlns="http://www.w3.org/2000/svg" width="151" height="16" viewBox="0 0 151 16"><g><g><g><path d="M2.89 10.79c-.016.425.073.847.26 1.227.158.334.398.621.696.835.307.213.644.376 1 .483.4.09.81.133 1.219.131.306-.011.61-.04.913-.087.315-.047.622-.136.914-.263.277-.126.517-.323.695-.57.189-.268.281-.592.261-.92a1.293 1.293 0 0 0-.391-.964 3.004 3.004 0 0 0-.957-.612 9.765 9.765 0 0 0-1.348-.439l-1.566-.394a22.02 22.02 0 0 1-1.567-.483 4.472 4.472 0 0 1-1.348-.744 3.429 3.429 0 0 1-.956-1.139 3.306 3.306 0 0 1-.392-1.709 3.83 3.83 0 0 1 .479-1.927c.31-.53.725-.992 1.218-1.357a7.125 7.125 0 0 1 1.74-.835A7.444 7.444 0 0 1 5.674.76a8.96 8.96 0 0 1 2.177.263c.659.152 1.28.436 1.827.835.52.384.95.877 1.262 1.446.33.665.495 1.402.478 2.146H8.371a3.675 3.675 0 0 0-.262-1.095 1.77 1.77 0 0 0-.608-.656 3.025 3.025 0 0 0-.87-.351 4.383 4.383 0 0 0-1.087-.088 4.759 4.759 0 0 0-.783.088c-.247.041-.483.13-.696.263a1.504 1.504 0 0 0-.518.522 1.484 1.484 0 0 0-.218.744 1.2 1.2 0 0 0 .174.7c.153.235.384.407.652.483.421.186.858.333 1.306.438.566.176 1.305.351 2.177.57.174.044.392.088.695.176.262.087.566.175.914.307.304.131.608.306.956.482.32.21.612.46.87.744.267.317.487.67.652 1.051.187.459.276.951.262 1.446a4.362 4.362 0 0 1-.392 1.84 4.66 4.66 0 0 1-1.131 1.49 5.821 5.821 0 0 1-1.866.963c-.835.238-1.7.356-2.567.35a8.13 8.13 0 0 1-2.306-.307 6.741 6.741 0 0 1-1.957-.92A4.88 4.88 0 0 1 .42 13.07a4.36 4.36 0 0 1-.479-2.322H2.9z"/></g><g><path d="M18.81 4.7h.039l1.827 5.307h-3.74zm-7.05 10.866h3.223l1.131-3.241h5.304l1.087 3.24h3.262L20.417 1.11h-3.22z"/></g><g><path d="M26.6 1.11h3.175v14.456H26.6z"/></g><g><path d="M44.128 1.11H41.17v9.725h-.044l-5.96-9.725H31.99v14.456h2.959V5.885h.043l6.004 9.68h3.132V3.783h3.959v11.784h3.175V3.782h4.307V1.11z"/></g><g><path d="M61.48 1.11h3.175v11.783h7.004v2.673H61.48z"/></g><g><path d="M78.89 4.7h.039l1.827 5.307h-3.74zm-7.05 10.866h3.223l1.131-3.241h5.346l1.088 3.24h3.262L80.54 1.11H77.32z"/></g><g><path d="M98.378 10.087a5.523 5.523 0 0 1-1.61 4.385 6.611 6.611 0 0 1-4.524 1.446 6.536 6.536 0 0 1-4.524-1.446 5.522 5.522 0 0 1-1.61-4.385V1.11h3.175v8.977c.006.382.035.762.087 1.14.073.362.221.706.436 1.007.235.313.55.555.913.7.484.191 1.003.28 1.523.263a3.08 3.08 0 0 0 2.349-.744 3.647 3.647 0 0 0 .652-2.366V1.11h3.175v8.977z"/></g><g><path d="M103.555 3.562h3.474a2.427 2.427 0 0 1 1.608.483c.416.394.625.963.565 1.536a2.034 2.034 0 0 1-.565 1.58 2.426 2.426 0 0 1-1.608.484h-3.474zM100.38 15.53h3.136v-5.65h3.175a2.319 2.319 0 0 1 1.697.521c.409.462.654 1.048.696 1.665.05.304.08.612.087.92.044.307.044.614.087.92.044.305.087.612.13.875.047.255.12.505.219.745h3.177a1.963 1.963 0 0 1-.348-.745 6.855 6.855 0 0 1-.174-.92 7.92 7.92 0 0 1-.088-.963c0-.306-.043-.569-.043-.788a4.442 4.442 0 0 0-.13-1.095 3.94 3.94 0 0 0-.349-1.007 2.138 2.138 0 0 0-.609-.788 2.203 2.203 0 0 0-.956-.483v-.044a3.34 3.34 0 0 0 1.74-1.402 4.41 4.41 0 0 0 .519-2.192 4.578 4.578 0 0 0-.305-1.533 3.56 3.56 0 0 0-.83-1.27 3.995 3.995 0 0 0-1.347-.876 4.407 4.407 0 0 0-1.74-.307h-7.744z"/></g><g><path d="M114.3 1.11h10.745v2.672h-7.568v3.11h6.96v2.453h-6.96v3.55h7.744v2.672H114.3z"/></g><g><path d="M138.788 1.11h-2.96v9.725h-.043l-6.003-9.725h-3.132v14.456h2.958V5.885h.043l5.96 9.68h3.176V3.783h3.959v11.784h3.132V3.782h4.305V1.11z"/></g></g></g></svg>